<svg width="32" height="32" viewBox="0 0 32 32" fill="none" xmlns="http://www.w3.org/2000/svg">
    <path d="M24.4001 24H22.4001C21.3001 24 20.3001 23.1 20.3001 21.9V17.8H24.4001V13.3H20.3001V10H18.3001C17.0001 10 15.8001 10.7 15.1001 11.8C15.1001 11.9 15.0001 11.9 15.0001 12C14.7001 12.5 14.6001 13 14.6001 13.5V13.7V22.5V23.5C14.6001 26.5 17.0001 28.9 20.0001 28.9H22.4001H23.4001C23.8001 28.9 24.1001 28.9 24.5001 28.8L24.4001 24Z" fill="#D9027D" />
    <path d="M7.6001 28.8H8.2001C11.1001 28.8 13.5001 26.4 13.6001 23.5H7.6001V28.8Z" fill="#FDCE18" />
    <path d="M18.9001 3.2C16.2001 3.2 14.0001 5.1 13.5001 7.6V3.6H7.6001V22.4H13.5001V13.3C13.6001 12.6 13.8001 12 14.1001 11.4C14.2001 11.3 14.2001 11.2 14.3001 11.1C15.2001 9.7 16.7001 8.9 18.4001 8.9H20.4001V3.4C19.9001 3.3 19.4001 3.2 18.9001 3.2Z" fill="var(--colors-black)" />
</svg>